<svg xmlns="http://www.w3.org/2000/svg" width="152.991" height="152.982" viewBox="0 0 152.991 152.982"><path d="M104.243,154.483H24.915A22.691,22.691,0,0,1,2.25,131.818V52.49A22.691,22.691,0,0,1,24.915,29.825H60.8a5.666,5.666,0,1,1,0,11.333H24.915A11.345,11.345,0,0,0,13.583,52.49v79.328A11.345,11.345,0,0,0,24.915,143.15h79.328a11.345,11.345,0,0,0,11.333-11.333V95.931a5.666,5.666,0,1,1,11.333,0v35.886A22.691,22.691,0,0,1,104.243,154.483ZM30.582,131.818a5.666,5.666,0,0,1-5.431-7.284l6.044-20.285a39.787,39.787,0,0,1,9.96-16.719L108.621,20.07l.032-.032L121.381,7.3a19.834,19.834,0,1,1,28.05,28.048L69.205,115.577a39.789,39.789,0,0,1-16.722,9.961L32.2,131.582A5.662,5.662,0,0,1,30.582,131.818Zm82.062-99.744L49.169,95.541a28.418,28.418,0,0,0-7.113,11.942L39,117.73l10.246-3.053a28.421,28.421,0,0,0,11.944-7.115l63.47-63.47Zm8.012-8.014,12.02,12.02,8.742-8.742A8.5,8.5,0,1,0,129.4,15.314Z" transform="translate(-2.25 -1.501)"/></svg>