<svg xmlns="http://www.w3.org/2000/svg" width="12.644" height="15.172" viewBox="0 0 12.644 15.172">
  <path id="file-chart-line_1_" data-name="file-chart-line (1)" d="M9.586,4.425V.291A4.411,4.411,0,0,1,11.144,1.3l2.2,2.2a4.4,4.4,0,0,1,1.006,1.558H10.218A.633.633,0,0,1,9.586,4.425Zm5.057,2.2v5.383a3.164,3.164,0,0,1-3.161,3.161H5.161A3.164,3.164,0,0,1,2,12.011V3.161A3.164,3.164,0,0,1,5.161,0H8.015c.1,0,.2.008.307.015v4.41a1.9,1.9,0,0,0,1.9,1.9h4.41c.007.1.015.2.015.307ZM6.425,11.379a.632.632,0,0,0-1.264,0v1.264a.632.632,0,0,0,1.264,0ZM8.954,8.218a.632.632,0,0,0-1.264,0v4.425a.632.632,0,0,0,1.264,0Zm2.529,1.9a.632.632,0,0,0-1.264,0v2.529a.632.632,0,0,0,1.264,0Z" transform="translate(-2)" fill="#fff"/>
</svg>
