<svg xmlns="http://www.w3.org/2000/svg" width="14.463" height="14.463" viewBox="0 0 14.463 14.463">
  <path id="lesson" d="M11.45,9.335v3.32a.6.6,0,0,1-1.205,0V10.473l-2.13.815a2.521,2.521,0,0,1-1.782,0L3.714,10.28a.986.986,0,0,1,0-1.889l2.62-1h0a2.519,2.519,0,0,1,1.769,0l2.636,1a1.033,1.033,0,0,1,.706.943Zm3.013-6.322V4.218H0V3.013A3.017,3.017,0,0,1,3.013,0H11.45A3.017,3.017,0,0,1,14.463,3.013Zm-10.847-.9a.9.9,0,1,0-.9.9A.9.9,0,0,0,3.616,2.109Zm2.41,0a.9.9,0,1,0-.9.9A.9.9,0,0,0,6.026,2.109Zm1.2,10.546A3.722,3.722,0,0,1,5.9,12.414L4.821,12v.769a1.511,1.511,0,0,0,.876,1.37,3.64,3.64,0,0,0,1.534.321,3.659,3.659,0,0,0,1.535-.321,1.513,1.513,0,0,0,.875-1.37V12l-1.1.417a3.692,3.692,0,0,1-1.32.24ZM0,10.245a3.017,3.017,0,0,0,3.013,3.013h.652a2.656,2.656,0,0,1-.049-.486V11.533L3.282,11.4a2.189,2.189,0,0,1,.006-4.139l2.62-1a3.747,3.747,0,0,1,2.627,0l2.637,1a2.346,2.346,0,0,1,1.5,2.068c0,.064-.013,3.322-.013,3.322a1.8,1.8,0,0,1-.038.367,3.018,3.018,0,0,0,1.846-2.777V5.423H0v4.821Z" fill="#fff"/>
</svg>
