<svg xmlns="http://www.w3.org/2000/svg" width="11.538" height="15.384" viewBox="0 0 11.538 15.384">
  <path id="treatment_3_" data-name="treatment (3)" d="M11.333,1.282h-.11A1.927,1.927,0,0,0,9.41,0H8.128A1.927,1.927,0,0,0,6.315,1.282H6.2A3.209,3.209,0,0,0,3,4.487v7.692a3.209,3.209,0,0,0,3.2,3.2h5.128a3.209,3.209,0,0,0,3.2-3.2V4.487A3.209,3.209,0,0,0,11.333,1.282Zm-4.487,3.2H8.128V3.2a.641.641,0,1,1,1.282,0V4.487h1.282a.641.641,0,1,1,0,1.282H9.41V7.051a.641.641,0,0,1-1.282,0V5.769H6.846a.641.641,0,1,1,0-1.282ZM8.769,12.82H6.2a.641.641,0,0,1,0-1.282H8.769a.641.641,0,1,1,0,1.282Zm2.564-2.564H6.2a.641.641,0,0,1,0-1.282h5.128a.641.641,0,0,1,0,1.282Z" transform="translate(-3)" fill="#fff"/>
</svg>
