<svg xmlns="http://www.w3.org/2000/svg" width="14.869" height="14.869" viewBox="0 0 14.869 14.869">
  <path id="user-md-chat_7_" data-name="user-md-chat (7)" d="M12.391,14.249a.619.619,0,0,1-.62.62H.62a.619.619,0,0,1-.62-.62A5.577,5.577,0,0,1,3.1,9.262v2.062a1.239,1.239,0,1,0,1.239,0V8.817a5.558,5.558,0,0,1,1.239-.144H6.815a5.536,5.536,0,0,1,.62.037v2.556A1.856,1.856,0,0,0,6.2,13.01v.62a.62.62,0,1,0,1.239,0v-.62a.62.62,0,0,1,1.239,0v.62a.62.62,0,1,0,1.239,0v-.62a1.856,1.856,0,0,0-1.239-1.745V9A5.58,5.58,0,0,1,12.391,14.249Zm1.63-9.074a3,3,0,0,0,.844-2.231A3.086,3.086,0,0,0,11.925,0,3,3,0,0,0,9.692.848,3.3,3.3,0,0,0,8.673,3.23V4.753A1.288,1.288,0,0,0,9.912,6.2h1.724a3.309,3.309,0,0,0,2.385-1.02ZM7.434,4.753V3.23A4.551,4.551,0,0,1,8.054.952,3.717,3.717,0,1,0,8.023,6.51a2.739,2.739,0,0,1-.589-1.758Z" transform="translate(0 0)" fill="#fff"/>
</svg>
