<svg xmlns="http://www.w3.org/2000/svg" width="15.232" height="15.233" viewBox="0 0 15.232 15.233">
  <path id="webinar-play" d="M11.424,0a3.808,3.808,0,1,0,3.808,3.808A3.808,3.808,0,0,0,11.424,0ZM10.155,4.958v-2.3a.594.594,0,0,1,.883-.519l2.07,1.15a.594.594,0,0,1,0,1.039l-2.07,1.15a.594.594,0,0,1-.883-.519Zm1.269,3.927A5.071,5.071,0,0,1,7.032,1.27H3.173A3.177,3.177,0,0,0,0,4.443V9.521a3.177,3.177,0,0,0,3.173,3.173H6.981v1.269H4.442a.635.635,0,0,0,0,1.269h6.347a.635.635,0,0,0,0-1.269H8.25V12.694h3.808a3.177,3.177,0,0,0,3.173-3.173V7.159A5.061,5.061,0,0,1,11.424,8.886ZM3.807,3.809A1.587,1.587,0,1,1,2.221,5.4,1.586,1.586,0,0,1,3.807,3.809Zm2.127,6.307a.636.636,0,0,1-.817-.372,1.382,1.382,0,0,0-1.309-.857A1.381,1.381,0,0,0,2.5,9.744.635.635,0,1,1,1.309,9.3a2.656,2.656,0,0,1,2.5-1.681A2.656,2.656,0,0,1,6.307,9.3a.634.634,0,0,1-.371.817Z" fill="#fff"/>
</svg>
