<svg xmlns="http://www.w3.org/2000/svg" width="23.131" height="20.048" viewBox="0 0 23.131 20.048">
  <path id="Path_78988" data-name="Path 78988" d="M23.7,13.13l-.008,0L3.107,4.589a1.135,1.135,0,0,0-1.07.1,1.188,1.188,0,0,0-.537.992v5.46a1.157,1.157,0,0,0,.941,1.136l11.226,2.076a.193.193,0,0,1,0,.379L2.441,16.812A1.157,1.157,0,0,0,1.5,17.947v5.461a1.136,1.136,0,0,0,.51.949,1.154,1.154,0,0,0,.637.193,1.183,1.183,0,0,0,.459-.093l20.582-8.488.009,0a1.542,1.542,0,0,0,0-2.834Z" transform="translate(-1.5 -4.501)" fill="#fff"/>
</svg>
