<svg xmlns="http://www.w3.org/2000/svg" width="134.822" height="132" viewBox="0 0 134.822 132"><path d="M99.967-57.557a45.286,45.286,0,0,0-4.834,5.543,8.5,8.5,0,0,0-1.1,4.383L94.1-25.846a19.714,19.714,0,0,1-5.994,14.438,19.657,19.657,0,0,1-14.373,5.93,19.657,19.657,0,0,1-14.373-5.93,19.468,19.468,0,0,1-5.994-14.373c0-.064,0-.064-.064-.064s-.064,0-.064-.064v-22.3a8.91,8.91,0,0,0-2.707-6.51C42.6-62.52,32.613-73.67,20.689-88.3c12.053,10.377,24.943,12.955,38.8,7.67A46.18,46.18,0,0,0,76.635-91.588l24.428-29a19.657,19.657,0,0,1,14.373-5.93,19.907,19.907,0,0,1,14.438,5.93,19.907,19.907,0,0,1,5.93,14.438,19.657,19.657,0,0,1-5.93,14.373Q114.4-72.542,99.967-57.557Zm-26.1-39.252c-15.018-17.918-22.816-27.135-23.268-27.65A25.061,25.061,0,0,0,32.291-132a25.02,25.02,0,0,0-18.24,7.541A25.282,25.282,0,0,0,6.51-106.283a24.8,24.8,0,0,0,7.348,18.176c12.7,15.791,23.59,28.23,32.807,37.318a3.506,3.506,0,0,1,1.1,2.578v22.3a5.368,5.368,0,0,0,.193,1.418A24.757,24.757,0,0,0,55.945-7.154,24.776,24.776,0,0,0,73.734,0a24.813,24.813,0,0,0,18.24-7.541,24.871,24.871,0,0,0,7.605-18.3v-.129c-.064-13.664-.129-20.5-.129-20.432.064-1.934.451-3.223,1.16-3.932q13.729-13.535,33.322-37.77a25.173,25.173,0,0,0,7.025-13.729,24.865,24.865,0,0,0-1.74-14.309,25.553,25.553,0,0,0-9.023-11.279A25.194,25.194,0,0,0,115.436-132q-11.892,0-18.562,7.928Z" transform="translate(-6.509 132)" fill="#27a3a5"/></svg>