<svg xmlns="http://www.w3.org/2000/svg" width="14.568" height="14.281" viewBox="0 0 14.568 14.281">
  <path id="hr-group_2_" data-name="hr-group (2)" d="M9.47,4a2.285,2.285,0,0,0,.243-1.022h.353a1.454,1.454,0,0,1,1.468,1.439V6.2A3.1,3.1,0,0,0,10.3,5.955v-.5A2.061,2.061,0,0,0,9.47,4Zm-5.2,1.955V5.467A2.062,2.062,0,0,1,5.1,4a2.285,2.285,0,0,1-.243-1.022H4.5A1.454,1.454,0,0,0,3.035,4.415V6.2l0,0a3.112,3.112,0,0,1,1.23-.245Zm2,.757.664.6a.524.524,0,0,0,.7,0l.646-.583a3.1,3.1,0,0,1,.826-.52v0A1.454,1.454,0,0,0,7.638,4.761h-.7A1.454,1.454,0,0,0,5.464,6.2h0a3.038,3.038,0,0,1,.807.509ZM4.857,2.38A1.2,1.2,0,0,0,6.071,1.19a1.214,1.214,0,0,0-2.428,0A1.2,1.2,0,0,0,4.857,2.38ZM7.285,4.165a1.19,1.19,0,1,0-1.214-1.19A1.2,1.2,0,0,0,7.285,4.165ZM9.713,2.38a1.2,1.2,0,0,0,1.214-1.19,1.214,1.214,0,0,0-2.428,0A1.2,1.2,0,0,0,9.713,2.38Zm1.478,6.954-1.51,1.507A2.948,2.948,0,0,0,8.718,8.93l-.531-.472,1.1-.979a1.362,1.362,0,0,1,2.068.317,1.335,1.335,0,0,1-.165,1.539Zm2.468-6.359a.9.9,0,0,0-.911.893V8.33h-.007a2.471,2.471,0,0,1-.58,1.721L9.713,12.484v1.2a.6.6,0,0,0,.607.6h2.009a.611.611,0,0,0,.448-.194l.363-.389a5.3,5.3,0,0,0,1.43-3.612V3.868A.9.9,0,0,0,13.659,2.975ZM7.9,9.81,5.282,7.478a1.362,1.362,0,0,0-2.068.317,1.335,1.335,0,0,0,.165,1.539l1.547,1.531a.583.583,0,0,1,0,.833h0a.611.611,0,0,1-.854,0l-1.66-1.644a2.474,2.474,0,0,1-.58-1.721H1.822V3.867a.9.9,0,0,0-.911-.893A.9.9,0,0,0,0,3.867v6.218A5.3,5.3,0,0,0,1.431,13.7l.363.389a.613.613,0,0,0,.448.194H7.893a.6.6,0,0,0,.607-.6V11.131A1.77,1.77,0,0,0,7.9,9.81Z" transform="translate(-0.001)" fill="#fff"/>
</svg>
