<svg xmlns="http://www.w3.org/2000/svg" width="14.354" height="14.654" viewBox="0 0 14.354 14.654">
  <path id="wisdom" d="M12.749,5.322a5.608,5.608,0,0,0-10,2.281,5.706,5.706,0,0,0,1.438,4.649,1.235,1.235,0,0,1,.295.791V14.07a.612.612,0,0,0,.611.611h5.2a.612.612,0,0,0,.611-.611h.312a.61.61,0,0,0,.164-.023,2.627,2.627,0,0,0,2.251-2.263l.081-.771h.053A1.088,1.088,0,0,0,14.872,9.9a15.094,15.094,0,0,0-2.123-4.58ZM9.982,9.18H8.148v3.056a.611.611,0,1,1-1.223,0V9.791H6.467a1.373,1.373,0,0,1-.735-2.534A.906.906,0,0,1,5.7,7.04a.917.917,0,0,1,.917-.917.9.9,0,0,1,.341.067A.912.912,0,0,1,8.616,5.94a.905.905,0,0,1,.449-.122.917.917,0,0,1,.917.917,1.223,1.223,0,0,1,0,2.445ZM7.16,2.142a.612.612,0,0,1-.6-.526L6.43.725A.611.611,0,0,1,7.641.554l.125.891a.611.611,0,0,1-.52.69A.584.584,0,0,1,7.16,2.142Zm3.278.309a.612.612,0,0,1-.579-.808l.288-.852a.612.612,0,1,1,1.159.391l-.289.853a.611.611,0,0,1-.579.416Zm2.751,1.707a.611.611,0,0,1-.433-1.043l.635-.638a.611.611,0,0,1,.866.863l-.635.638a.61.61,0,0,1-.433.18Zm-9.1-.817a.61.61,0,0,1-.5-.263l-.512-.74a.611.611,0,1,1,1.006-.7l.512.739a.611.611,0,0,1-.5.959ZM1.915,5.733a.61.61,0,0,1-.3-.077L.832,5.218a.611.611,0,0,1,.6-1.068l.786.438a.611.611,0,0,1-.3,1.146Z" transform="translate(-0.518 -0.027)" fill="#fff"/>
</svg>
