<svg xmlns="http://www.w3.org/2000/svg" width="14.999" height="15"><path fill="#6750a4" d="M3.125 15A3.13 3.13 0 0 1 0 11.875v-7.5A3.13 3.13 0 0 1 3.125 1.25h.625V.625A.625.625 0 0 1 4.375 0 .625.625 0 0 1 5 .625v.625h5V.625A.625.625 0 0 1 10.625 0a.625.625 0 0 1 .626.625v.625h.625A3.13 3.13 0 0 1 15 4.375v7.5A3.13 3.13 0 0 1 11.875 15Zm-1.876-3.126a1.876 1.876 0 0 0 1.876 1.876h8.75a1.875 1.875 0 0 0 1.875-1.876V6.249H1.25Zm0-7.5v.625h12.5v-.625a1.875 1.875 0 0 0-1.875-1.875h-8.75A1.875 1.875 0 0 0 1.25 4.375Zm8.437 5a.94.94 0 0 1 .938-.938.94.94 0 0 1 .938.938.94.94 0 0 1-.938.937.94.94 0 0 1-.937-.936Zm-3.125 0a.94.94 0 0 1 .938-.938.94.94 0 0 1 .938.938.94.94 0 0 1-.938.937.94.94 0 0 1-.937-.936Zm-3.125 0a.937.937 0 0 1 .938-.938.937.937 0 0 1 .937.938.937.937 0 0 1-.937.937.937.937 0 0 1-.936-.936Z"/></svg>