<svg xmlns="http://www.w3.org/2000/svg" width="14.869" height="14.883" viewBox="0 0 14.869 14.883">
  <path id="lightbulb-on_4_" data-name="lightbulb-on (4)" d="M10.408,1.528,11.173.283a.62.62,0,1,1,1.056.649l-.765,1.246a.619.619,0,1,1-1.056-.648Zm-7.04.648A.62.62,0,1,0,4.425,1.53L3.661.283A.62.62,0,1,0,2.6.931l.764,1.246ZM2.013,3.545.9,3.012A.619.619,0,1,0,.364,4.129l1.114.534a.619.619,0,1,0,.535-1.117Zm5.344-1.07A4.975,4.975,0,0,0,3.087,9.8a5.269,5.269,0,0,0,1.15,1.409,2.115,2.115,0,0,1,.415.559h2.17V8.558a1.857,1.857,0,0,1-1.24-1.745.62.62,0,1,1,1.24,0,.62.62,0,1,0,1.24,0,.62.62,0,1,1,1.24,0,1.857,1.857,0,0,1-1.24,1.745v3.213h2.149a2.507,2.507,0,0,1,.562-.67A3.832,3.832,0,0,0,11.8,9.9,5.083,5.083,0,0,0,10.918,3.9,4.931,4.931,0,0,0,7.358,2.474Zm-2.4,10.708A1.565,1.565,0,0,0,6.5,14.87H8.371A1.549,1.549,0,0,0,9.92,13.321v-.31H4.951C4.951,13.069,4.961,13.124,4.958,13.183Zm9.868-9.9a.618.618,0,0,0-.819-.31l-1.2.54a.62.62,0,0,0,.255,1.184.608.608,0,0,0,.254-.055l1.2-.54a.618.618,0,0,0,.31-.819Z" transform="translate(-0.012 0.013)" fill="#fff"/>
</svg>
