<svg xmlns="http://www.w3.org/2000/svg" width="12.562" height="4.949"><path fill="#fff" d="M6.5 4.668 6 4.212l-.5.456a1.114 1.114 0 0 1-1.48 0l-.5-.456-.5.456a1.114 1.114 0 0 1-1.48 0L.09 3.334a.3.3 0 0 1 0-.452.37.37 0 0 1 .492 0l1.45 1.334a.37.37 0 0 0 .494 0l.5-.457-.463-.425a.3.3 0 0 1 0-.452.37.37 0 0 1 .492 0l.462.426 3.5-3.212a.37.37 0 0 1 .494 0 .3.3 0 0 1 0 .452l-3.5 3.214.5.455a.37.37 0 0 0 .494 0l.5-.457-.463-.425a.3.3 0 0 1 0-.452.37.37 0 0 1 .492 0l.462.426 3.5-3.212a.37.37 0 0 1 .494 0 .3.3 0 0 1 0 .452l-3.5 3.214.5.455a.37.37 0 0 0 .494 0L11.968.097a.37.37 0 0 1 .494 0 .3.3 0 0 1 0 .452L7.978 4.67a1.114 1.114 0 0 1-1.48 0Z"/></svg>