<svg xmlns="http://www.w3.org/2000/svg" width="13.732" height="15.252" viewBox="0 0 13.732 15.252">
  <path id="productivity" d="M13.974,8.826l-.287-.165a5.54,5.54,0,0,0,0-2.067l.286-.165a1.906,1.906,0,0,0-1.9-3.306l-.286.165A5.739,5.739,0,0,0,9.971,2.241V1.909a1.907,1.907,0,0,0-3.814,0v.332A5.725,5.725,0,0,0,4.342,3.289l-.286-.165a1.907,1.907,0,0,0-1.9,3.306l.287.165a5.534,5.534,0,0,0,0,2.066l-.287.165a1.907,1.907,0,0,0,1.9,3.306l.286-.165a5.713,5.713,0,0,0,1.816,1.048v.332a1.907,1.907,0,0,0,3.814,0v-.332a5.737,5.737,0,0,0,1.816-1.048l.285.165a1.907,1.907,0,0,0,1.9-3.306ZM10.42,7.179a.635.635,0,0,1-.9,0L8.7,6.357V10.17a.636.636,0,0,1-1.271,0V6.357l-.822.822a.636.636,0,1,1-.9-.9L7.2,4.789a1.254,1.254,0,0,1,1.733,0l1.49,1.49a.635.635,0,0,1,0,.9Z" transform="translate(-1.198 -0.002)" fill="#fff"/>
</svg>
