<svg xmlns="http://www.w3.org/2000/svg" width="24" height="16" viewBox="0 0 24 16">
  <path id="battery-bolt" d="M8,19a1,1,0,0,1-1,1H5a5.006,5.006,0,0,1-5-5V9A5.006,5.006,0,0,1,5,4H7A1,1,0,0,1,7,6H5A3,3,0,0,0,2,9v6a3,3,0,0,0,3,3H7A1,1,0,0,1,8,19Zm6.762-6.984A1.9,1.9,0,0,0,13.094,11l-4.011.05,3.031-5.572a1,1,0,1,0-1.756-.956s-3.255,6-3.274,6.063a1.84,1.84,0,0,0,.277,1.646A1.948,1.948,0,0,0,8.924,13h4.042l-.013.025-2.743,5.53A1,1,0,1,0,12,19.443l2.72-5.484a1.957,1.957,0,0,0,.041-1.944ZM23,8H21.9A5.009,5.009,0,0,0,17,4H15a1,1,0,0,0,0,2h2a3,3,0,0,1,3,3v6a3,3,0,0,1-3,3H15a1,1,0,0,0,0,2h2a5.009,5.009,0,0,0,4.9-4H23a1,1,0,0,0,1-1V9A1,1,0,0,0,23,8Z" transform="translate(0 -4)" fill="#514e7d"/>
</svg>
