<svg xmlns="http://www.w3.org/2000/svg" width="24" height="16" viewBox="0 0 24 16">
  <path id="battery-exclamation" d="M12.5,18.5A1.5,1.5,0,1,1,11,17,1.5,1.5,0,0,1,12.5,18.5ZM11,15a1,1,0,0,0,1-1V5a1,1,0,0,0-2,0v9A1,1,0,0,0,11,15ZM7,4H5A5.006,5.006,0,0,0,0,9v6a5.006,5.006,0,0,0,5,5H6a1,1,0,0,0,0-2H5a3,3,0,0,1-3-3V9A3,3,0,0,1,5,6H7A1,1,0,0,0,7,4ZM23,8H21.9A5.009,5.009,0,0,0,17,4H15a1,1,0,0,0,0,2h2a3,3,0,0,1,3,3v6a3,3,0,0,1-3,3H16a1,1,0,0,0,0,2h1a5.009,5.009,0,0,0,4.9-4H23a1,1,0,0,0,1-1V9A1,1,0,0,0,23,8Z" transform="translate(0 -4)" fill="#514e7f"/>
</svg>
