<svg xmlns="http://www.w3.org/2000/svg" width="23.992" height="23.989" viewBox="0 0 23.992 23.989">
  <path id="blood" d="M8.04,11.856a2.956,2.956,0,0,0-4.08,0l-2.2,1.9a6,6,0,1,0,8.431-.051L8.041,11.855Zm.789,8.972a4.1,4.1,0,0,1-5.657,0,3.992,3.992,0,0,1-.054-5.606s2.234-1.927,2.258-1.953a.858.858,0,0,1,1.25,0c.024.025,2.2,1.9,2.2,1.9a4,4,0,0,1,0,5.657ZM22.361,8.583l-1.947-1.8a2.746,2.746,0,0,0-3.806-.02l-2,1.845a5.5,5.5,0,1,0,7.75-.028Zm-1.386,6.391a3.584,3.584,0,0,1-4.95,0A3.5,3.5,0,0,1,16,10.051l1.988-1.837a.721.721,0,0,1,.508-.206.775.775,0,0,1,.542.226l1.939,1.791a3.5,3.5,0,0,1,0,4.95ZM12.862,2.207,11.361.555A1.971,1.971,0,0,0,8.6.6L7.172,2.172a4,4,0,1,0,5.691.035ZM11.414,6.414a2.047,2.047,0,0,1-2.828,0h0A1.986,1.986,0,0,1,8,5a2.021,2.021,0,0,1,.62-1.449L10,2.029l1.415,1.558a2,2,0,0,1,0,2.828Z" transform="translate(-0.004 -0.01)" fill="#514e7d"/>
</svg>
