<svg xmlns="http://www.w3.org/2000/svg" width="34" height="34" viewBox="0 0 34 34">
  <path id="light-emergency-on" d="M34,32.583h0A1.417,1.417,0,0,1,32.583,34H1.417A1.417,1.417,0,0,1,0,32.583H0a4.25,4.25,0,0,1,4.25-4.25h25.5A4.25,4.25,0,0,1,34,32.583Zm-2.534-23.8L33.59,6.639a1.416,1.416,0,0,0-2.014-1.992L29.451,6.8a1.416,1.416,0,1,0,2.014,1.992ZM26.049,4.194l1.1-2.125a1.417,1.417,0,1,0-2.516-1.3l-1.1,2.125a1.417,1.417,0,0,0,2.516,1.3ZM4.538,8.8a1.416,1.416,0,0,0,.011-2L2.424,4.647A1.416,1.416,0,1,0,.409,6.639L2.534,8.788a1.416,1.416,0,0,0,2,.011Zm5.322-4a1.417,1.417,0,0,0,.606-1.91L9.366.765a1.417,1.417,0,0,0-2.516,1.3l1.1,2.125A1.417,1.417,0,0,0,9.86,4.8ZM29.75,18.417v5.667A1.415,1.415,0,0,1,28.333,25.5H5.667A1.415,1.415,0,0,1,4.25,24.083V18.417a12.75,12.75,0,1,1,25.5,0Zm-11.333-4.25A1.415,1.415,0,0,0,17,12.75a5.672,5.672,0,0,0-5.667,5.667,1.417,1.417,0,0,0,2.833,0A2.836,2.836,0,0,1,17,15.583,1.415,1.415,0,0,0,18.417,14.167Z" transform="translate(0 0)" fill="#dd334e"/>
</svg>
