<svg xmlns="http://www.w3.org/2000/svg" width="40" height="34" viewBox="0 0 40 34">
  <g id="Polygon_39" data-name="Polygon 39" fill="#4a4458" stroke-linecap="round" stroke-linejoin="round">
    <path d="M 31.25791931152344 32.50000381469727 L 8.742090225219727 32.50000381469727 C 7.470829963684082 32.50000381469727 6.335070133209229 31.84119415283203 5.703919887542725 30.73767471313477 C 5.072760105133057 29.6341552734375 5.08076000213623 28.32116508483887 5.7253098487854 27.22542381286621 L 16.98323059082031 8.08697509765625 C 17.61877059936523 7.006564617156982 18.74653053283691 6.361544609069824 20 6.361544609069824 C 21.25346946716309 6.361544609069824 22.38122940063477 7.006564617156982 23.01676940917969 8.08697509765625 L 34.27468872070312 27.22542381286621 C 34.91923904418945 28.32116508483887 34.92724990844727 29.6341552734375 34.29608917236328 30.73767471313477 C 33.66493988037109 31.84118461608887 32.52917861938477 32.50000381469727 31.25791931152344 32.50000381469727 Z" stroke="none"/>
    <path d="M 20 7.861534118652344 C 19.65607070922852 7.861534118652344 18.79960060119629 7.957605361938477 18.27613067626953 8.847505569458008 L 7.018211364746094 27.98595428466797 C 6.487319946289062 28.88847351074219 6.832801818847656 29.69016456604004 7.0059814453125 29.99295425415039 C 7.179161071777344 30.29573440551758 7.694999694824219 30.9999942779541 8.742080688476562 30.9999942779541 L 31.25790977478027 30.9999942779541 C 32.30500030517578 30.9999942779541 32.82083892822266 30.29574584960938 32.99401092529297 29.99295425415039 C 33.16719055175781 29.69016456604004 33.51268005371094 28.88846588134766 32.98178863525391 27.98595428466797 L 21.72386932373047 8.847505569458008 C 21.20039939880371 7.957605361938477 20.34392929077148 7.861534118652344 20 7.861534118652344 M 19.99999618530273 4.861537933349609 C 21.67151832580566 4.861537933349609 23.34304046630859 5.683174133300781 24.30966949462891 7.326444625854492 L 35.56758880615234 26.46489334106445 C 37.52827072143555 29.79806518554688 35.125 33.99999618530273 31.25790977478027 33.99999618530273 L 8.742080688476562 33.99999618530273 C 4.875 33.99999618530273 2.471721649169922 29.79806518554688 4.432411193847656 26.46489334106445 L 15.69033050537109 7.326444625854492 C 16.65695571899414 5.683174133300781 18.32847595214844 4.861537933349609 19.99999618530273 4.861537933349609 Z" stroke="none" fill="#fff"/>
  </g>
</svg>
