<svg xmlns="http://www.w3.org/2000/svg" data-name="Layer 1" viewBox="0 0 106.08 24.88"><path d="M10.5 17.43 5 1.42a.93.93 0 0 0-.91-.64H1a1 1 0 0 0-.95 1v21.83a1 1 0 0 0 1 .95h2.76a.93.93 0 0 0 .95-.91v-6.19A.64.64 0 0 1 6 17.24l2.45 6.69a.92.92 0 0 0 .88.63h3.59a1 1 0 0 0 .88-.63l2.45-6.69a.62.62 0 0 1 .8-.36.64.64 0 0 1 .4.58v6.15a.94.94 0 0 0 .95.95h2.85a.93.93 0 0 0 1-.91V1.73a.93.93 0 0 0-.91-.95h-3.2a1 1 0 0 0-.92.64l-5.52 16a.64.64 0 0 1-.82.38.6.6 0 0 1-.38-.37m21.15-15.7-8 21.88a.94.94 0 0 0 .56 1.21 1 1 0 0 0 .33.06h3.07a1 1 0 0 0 .89-.64l1.3-3.64a.92.92 0 0 1 .9-.6h7.16a.92.92 0 0 1 .89.64l1.3 3.64a1 1 0 0 0 .89.64H44a1 1 0 0 0 .94-.95.9.9 0 0 0-.06-.32l-8-21.88A1 1 0 0 0 36 1.1h-3.43a1 1 0 0 0-.92.63m.41 12.53 1.62-4.63a.64.64 0 0 1 .85-.35.63.63 0 0 1 .35.35l1.65 4.63a1 1 0 0 1-.62 1.22 1 1 0 0 1-.3 0h-2.67a.93.93 0 0 1-.94-.93.9.9 0 0 1 .06-.33ZM55.85.78H47.7a.94.94 0 0 0-1 .92v21.91a1 1 0 0 0 .92.95h2.89a1 1 0 0 0 1-.95v-5.23a.93.93 0 0 1 .92-.95h3.3a.94.94 0 0 1 .89.6l2.15 5.9a.94.94 0 0 0 .89.63h3.04a1 1 0 0 0 .94-.95.9.9 0 0 0-.06-.32l-2.72-7.51a8.34 8.34 0 0 0-5-15Zm-3.39 4.76h3.39a3.58 3.58 0 0 1 3.58 3.58 3.56 3.56 0 0 1-3.58 3.55h-3.39a.92.92 0 0 1-1-.91V6.49a.93.93 0 0 1 .91-1Zm25.36 14.28a7.51 7.51 0 0 1-7.51-7.51 7.51 7.51 0 0 1 7.49-7.55 7.38 7.38 0 0 1 4.7 1.65 1 1 0 0 0 1.27-.06l2-2a1 1 0 0 0 0-1.34l-.08-.06a12.26 12.26 0 0 0-20.2 9.27v.08a12.27 12.27 0 0 0 12.24 12.3 12.2 12.2 0 0 0 7.93-2.89 1 1 0 0 0 .14-1.34.3.3 0 0 0-.08-.08l-2-2a1 1 0 0 0-1.26-.1 7.4 7.4 0 0 1-4.7 1.66Zm22.56-9.38h-6a.94.94 0 0 1-1-.92v-7.8a1 1 0 0 0-1-1H89.6a.94.94 0 0 0-.95.92V23.6a.93.93 0 0 0 .91.95h2.89a1 1 0 0 0 1-.95v-7.77a.92.92 0 0 1 .92-.95h6a1 1 0 0 1 1 .95v7.77a.93.93 0 0 0 .91.95h2.89a1 1 0 0 0 1-.95V1.72a1 1 0 0 0-1-1h-2.85a.94.94 0 0 0-1 .92v7.85a1 1 0 0 1-1 .94Z"/></svg>